<svg width="80" height="40" viewBox="0 0 80 40" fill="none" xmlns="http://www.w3.org/2000/svg">
  <path d="M17.1567 24.7129H17.1506C15.8054 24.7129 14.7148 25.8034 14.7148 27.1486V27.1548C14.7148 28.5 15.8054 29.5905 17.1506 29.5905H17.1567C18.5019 29.5905 19.5924 28.5 19.5924 27.1548V27.1486C19.5924 25.8034 18.5019 24.7129 17.1567 24.7129Z" fill="currentColor"/>
  <path d="M8.10378 17.821V18.6778L8.12826 34.0756H10.7721C12.0634 34.0572 13.1099 33.0352 13.1711 31.7561L13.1833 31.7439V31.6582C13.1833 31.6582 13.1833 31.646 13.1833 31.6399C13.1833 31.6399 13.1833 31.6276 13.1833 31.6215L13.1711 27.5701L13.1405 18.5064C13.1405 18.3779 13.1405 17.9924 13.1405 17.821C13.1405 14.247 15.87 11.3094 19.3645 10.985V5.92383C13.0854 6.26043 8.09766 11.4563 8.09766 17.821H8.10378Z" fill="currentColor"/>
  <path d="M20.6328 5.92435V10.9794C24.1212 11.3099 26.8568 14.2414 26.8568 17.8154C26.8568 21.3895 24.1273 24.327 20.6328 24.6514V29.7065C26.9119 29.3699 31.8996 24.174 31.8996 17.8093C31.8996 11.4445 26.9119 6.24871 20.6328 5.91211V5.92435Z" fill="currentColor"/>
  <path d="M60.3937 11.2979C56.5944 11.2979 53.8359 13.998 53.8359 17.7215C53.8359 21.4451 56.5944 24.1452 60.3937 24.1452C61.9304 24.1452 63.3009 23.6728 64.3535 22.7922V24.1131H66.9049V17.7215C66.9049 14.0009 64.1669 11.2979 60.3937 11.2979ZM64.3535 17.7215C64.3535 20.1213 62.6885 21.8621 60.3937 21.8621C58.0989 21.8621 56.434 20.1213 56.434 17.7215C56.434 15.3218 58.0989 13.581 60.3937 13.581C62.6885 13.581 64.3535 15.3218 64.3535 17.7215Z" fill="currentColor"/>
  <path d="M46.5112 11.2979C42.738 11.2979 40 13.998 40 17.7215V28.7027H42.5514V22.7893C43.604 23.667 44.9745 24.1423 46.5112 24.1423C50.3105 24.1423 53.069 21.4422 53.069 17.7186C53.069 13.995 50.3105 11.2979 46.5112 11.2979ZM50.4709 17.7215C50.4709 20.1213 48.806 21.8621 46.5112 21.8621C44.2164 21.8621 42.5514 20.1213 42.5514 17.7215C42.5514 15.3218 44.2164 13.581 46.5112 13.581C48.806 13.581 50.4709 15.3218 50.4709 17.7215Z" fill="currentColor"/>
  <path d="M75.7446 18.1678L79.9988 12.1553H77.0509L74.2691 16.3162L71.4553 12.1582H68.4141L72.6392 18.0833L68.4141 24.1104H71.3649L74.1117 19.9348L76.9605 24.0754H79.9988L75.7446 18.1678Z" fill="currentColor"/>
</svg> 